<?xml version="1.0" encoding="UTF-8"?>
<svg id="_레이어_4" data-name="레이어 4" xmlns="http://www.w3.org/2000/svg" viewBox="0 0 1048 1048">
  <defs>
    <style>
      .cls-1 {
        fill: #191919;
      }

      .cls-2 {
        fill: #ededed;
      }
    </style>
  </defs>
  <rect class="cls-1" x="-2227.74" y="-1087.54" width="6905.1" height="4624.03"/>
  <path class="cls-2" d="M609.41,244.56l-63.7-72.53c-24.81-28.25-66.21-23.97-86.08,8.89l-159.04,262.93-12.01-9.37c-10.14-7.91-23.84,1.13-22.74,15.01l8.37,106.08c.89,11.24,11.28,18.15,20.39,13.57l77.85-39.15c9.49-4.77,11.63-18.94,4.07-27.01l-29.37-31.33,113-180.68c21.69-34.68,66.79-35.93,89.95-2.48l6.95,10.04c5.25,7.59,15.12,8.46,21.36,1.89l30.59-32.22c6.01-6.33,6.2-17.04.41-23.64Z"/>
  <path class="cls-2" d="M229.95,600.95l-71.26,124.28c-24.17,42.15,2.48,97.85,46.88,98.01l357.52,1.28,1.64,16.41c1.38,13.85,16.4,19.6,24.94,9.55l65.22-76.8c6.91-8.13,4.7-21.54-4.34-26.31l-77.22-40.73c-9.42-4.97-20.26,2.52-20.68,14.26l-1.6,45.63-279.34-6.91c-45.12-1.52-50.5-22.51-23.86-63.74l36.58-52.5c4.84-7.49,3.25-18.01-3.5-23.27l-30.54-23.76c-6.74-5.25-15.98-3.16-20.44,4.6Z"/>
  <path class="cls-2" d="M711.41,810.3l130.93-.24c44.4-.08,71.12-55.74,47.01-97.92l-194.13-339.68,11.26-10.51c9.5-8.87,5.57-26.25-6.53-28.85l-92.47-19.94c-9.8-2.11-18.52,7.3-17.12,18.47l11.96,95.44c1.46,11.64,12.92,17.84,21.84,11.82l34.67-23.38,139.78,244.92c23.49,43.61,4.98,79.35-40.1,76.58l-45.43-1.51c-8.18-.5-15.12,6.74-15.32,16.02l-.93,41.92c-.21,9.26,6.38,16.88,14.56,16.87Z"/>
</svg>